<?xml version="1.0" standalone="no"?>
<!DOCTYPE svg PUBLIC "-//W3C//DTD SVG 20010904//EN"
 "http://www.w3.org/TR/2001/REC-SVG-20010904/DTD/svg10.dtd">
<svg version="1.0" xmlns="http://www.w3.org/2000/svg"
 width="512.000000pt" height="512.000000pt" viewBox="0 0 512.000000 512.000000"
 preserveAspectRatio="xMidYMid meet">
<metadata>
Created by potrace 1.14, written by Peter Selinger 2001-2017
</metadata>
<g transform="translate(0.000000,512.000000) scale(0.100000,-0.100000)"
fill="#000000" stroke="none">
<path d="M2043 5108 c-12 -6 -29 -26 -38 -45 -9 -19 -431 -987 -937 -2151
-505 -1165 -939 -2151 -964 -2192 -80 -134 -104 -251 -104 -507 0 -152 7 -184
47 -202 33 -15 4976 -16 5020 -1 54 19 55 29 51 361 -4 265 -7 310 -23 354
-26 71 -1413 2746 -1435 2769 -11 11 -32 19 -50 19 -17 0 -39 -8 -50 -19 -10
-10 -94 -185 -186 -389 -92 -203 -170 -374 -174 -378 -4 -5 -128 263 -275 595
-320 720 -308 696 -340 704 -62 15 -113 -36 -95 -95 4 -14 65 -154 134 -310
70 -156 126 -289 124 -295 -2 -6 -72 -77 -156 -158 l-154 -146 -235 169 c-265
190 -278 196 -329 136 -16 -18 -99 -122 -184 -230 -85 -108 -155 -195 -156
-194 -7 7 -75 497 -71 517 6 38 609 1420 617 1415 4 -3 63 -129 130 -282 71
-162 133 -287 147 -300 13 -13 35 -23 49 -23 30 0 74 41 74 70 0 24 -337 785
-354 799 -19 16 -60 21 -83 9z m1916 -2506 c188 -362 341 -661 341 -664 0 -3
-34 9 -75 27 -46 20 -85 30 -100 27 -17 -3 -53 -37 -108 -103 -45 -54 -86 -98
-90 -98 -4 -1 -110 49 -235 109 -125 61 -237 110 -249 110 -13 0 -124 -40
-248 -90 -124 -49 -227 -90 -229 -90 -2 0 142 322 321 715 179 393 327 715
328 715 2 0 157 -296 344 -658z m-991 240 l140 -314 -98 -214 c-53 -118 -99
-217 -102 -219 -3 -3 -40 108 -83 247 -43 139 -81 256 -84 260 -4 4 -67 -29
-141 -73 -74 -45 -141 -84 -147 -86 -10 -4 -13 39 -13 195 l0 200 28 11 c15 6
99 81 187 165 88 85 163 151 167 148 4 -4 70 -148 146 -320z m1334 -1082 l118
-52 131 -257 c72 -141 147 -284 166 -318 l34 -62 -33 10 c-47 14 -183 13 -257
-2 -35 -6 -101 -31 -147 -55 l-83 -42 -31 55 c-17 30 -66 91 -109 136 l-78 82
-26 175 -26 175 28 22 c16 12 61 61 101 108 40 48 77 84 84 82 6 -3 64 -28
128 -57z m-622 -526 c179 -42 332 -166 414 -337 66 -138 100 -155 178 -91 62
53 114 84 172 103 245 84 476 -47 516 -290 5 -35 10 -153 10 -261 l0 -198
-2406 0 -2406 0 4 163 c6 181 18 232 81 329 148 230 451 297 692 153 107 -64
179 -153 223 -275 13 -36 31 -73 39 -82 20 -22 67 -23 124 -2 28 11 78 17 134
18 82 1 96 -2 157 -31 76 -36 145 -95 185 -159 34 -53 71 -71 112 -55 29 13
51 47 51 81 0 11 10 45 22 77 39 107 198 232 328 258 59 12 90 33 97 65 5 28
8 30 52 30 63 0 91 -9 91 -29 0 -38 31 -60 120 -87 l89 -27 6 -46 c10 -69 44
-193 61 -219 33 -51 106 -48 135 4 11 21 11 33 0 72 -8 26 -20 69 -27 97 -19
66 -18 213 1 287 59 225 233 399 451 452 79 19 214 19 294 0z"/>
</g>
</svg>
